<svg width="216" height="55" viewBox="0 0 216 55" fill="none" xmlns="http://www.w3.org/2000/svg">
<path d="M14.1653 12.7994L26.5073 12.818L26.463 42.198L38.805 42.2166L38.8493 12.8366L14.121 42.1793L14.1431 27.4894M14.1653 12.7994L1.80111 27.4708L14.1431 27.4894M14.1653 12.7994L14.1431 27.4894" stroke="black" stroke-width="2" stroke-linecap="round" stroke-linejoin="round"/>
<path d="M60.5114 43C58.6634 43 57.2354 42.524 56.2274 41.572C55.2194 40.592 54.7154 39.206 54.7154 37.414V22.42H48.0794V19.9H54.7154V13.39H57.4874V19.9H66.8534V22.42H57.4874V37.414C57.4874 39.458 58.4954 40.48 60.5114 40.48H66.4334V43H60.5114ZM83.175 43.378C81.439 43.378 79.927 43.042 78.639 42.37C77.379 41.67 76.399 40.676 75.699 39.388C74.999 38.1 74.649 36.574 74.649 34.81V28.09C74.649 26.326 74.999 24.814 75.699 23.554C76.399 22.266 77.379 21.272 78.639 20.572C79.927 19.872 81.439 19.522 83.175 19.522C84.911 19.522 86.409 19.872 87.669 20.572C88.957 21.272 89.951 22.266 90.651 23.554C91.351 24.814 91.701 26.312 91.701 28.048V34.81C91.701 36.574 91.351 38.1 90.651 39.388C89.951 40.676 88.957 41.67 87.669 42.37C86.409 43.042 84.911 43.378 83.175 43.378ZM83.175 40.942C84.995 40.942 86.409 40.41 87.417 39.346C88.425 38.282 88.929 36.77 88.929 34.81V28.09C88.929 26.13 88.425 24.618 87.417 23.554C86.409 22.49 84.995 21.958 83.175 21.958C81.383 21.958 79.969 22.49 78.933 23.554C77.925 24.618 77.421 26.13 77.421 28.09V34.81C77.421 36.77 77.925 38.282 78.933 39.346C79.941 40.41 81.355 40.942 83.175 40.942ZM107.477 43.42C105.181 43.42 103.333 42.664 101.933 41.152C100.533 39.612 99.8326 37.554 99.8326 34.978V27.964C99.8326 25.388 100.533 23.33 101.933 21.79C103.333 20.25 105.181 19.48 107.477 19.48C109.465 19.48 111.061 20.04 112.265 21.16C113.497 22.252 114.113 23.708 114.113 25.528L113.105 23.554H113.903L113.861 18.808V12.34H116.633V43H113.861V39.346H112.853L114.113 37.372C114.113 39.22 113.497 40.69 112.265 41.782C111.061 42.874 109.465 43.42 107.477 43.42ZM108.233 41.026C110.025 41.026 111.411 40.48 112.391 39.388C113.371 38.296 113.861 36.798 113.861 34.894V28.048C113.861 26.116 113.371 24.604 112.391 23.512C111.411 22.42 110.025 21.874 108.233 21.874C106.469 21.874 105.083 22.42 104.075 23.512C103.095 24.576 102.605 26.088 102.605 28.048V34.894C102.605 36.826 103.095 38.338 104.075 39.43C105.083 40.494 106.469 41.026 108.233 41.026ZM133.542 43.378C131.806 43.378 130.294 43.042 129.006 42.37C127.746 41.67 126.766 40.676 126.066 39.388C125.366 38.1 125.016 36.574 125.016 34.81V28.09C125.016 26.326 125.366 24.814 126.066 23.554C126.766 22.266 127.746 21.272 129.006 20.572C130.294 19.872 131.806 19.522 133.542 19.522C135.278 19.522 136.776 19.872 138.036 20.572C139.324 21.272 140.318 22.266 141.018 23.554C141.718 24.814 142.068 26.312 142.068 28.048V34.81C142.068 36.574 141.718 38.1 141.018 39.388C140.318 40.676 139.324 41.67 138.036 42.37C136.776 43.042 135.278 43.378 133.542 43.378ZM133.542 40.942C135.362 40.942 136.776 40.41 137.784 39.346C138.792 38.282 139.296 36.77 139.296 34.81V28.09C139.296 26.13 138.792 24.618 137.784 23.554C136.776 22.49 135.362 21.958 133.542 21.958C131.75 21.958 130.336 22.49 129.3 23.554C128.292 24.618 127.788 26.13 127.788 28.09V34.81C127.788 36.77 128.292 38.282 129.3 39.346C130.308 40.41 131.722 40.942 133.542 40.942ZM158.726 43.42C157.718 43.42 156.92 43.126 156.332 42.538C155.772 41.95 155.492 41.166 155.492 40.186C155.492 39.178 155.772 38.38 156.332 37.792C156.92 37.204 157.718 36.91 158.726 36.91C159.734 36.91 160.518 37.204 161.078 37.792C161.666 38.38 161.96 39.178 161.96 40.186C161.96 41.166 161.666 41.95 161.078 42.538C160.518 43.126 159.734 43.42 158.726 43.42ZM168.411 43V40.48H176.769V22.42H169.461V19.9H179.541V40.48H187.395V43H168.411ZM177.819 15.574C177.007 15.574 176.363 15.364 175.887 14.944C175.411 14.496 175.173 13.894 175.173 13.138C175.173 12.382 175.411 11.78 175.887 11.332C176.363 10.884 177.007 10.66 177.819 10.66C178.631 10.66 179.275 10.884 179.751 11.332C180.227 11.78 180.465 12.382 180.465 13.138C180.465 13.894 180.227 14.496 179.751 14.944C179.275 15.364 178.631 15.574 177.819 15.574ZM202.373 43.378C200.637 43.378 199.125 43.042 197.837 42.37C196.577 41.67 195.597 40.676 194.897 39.388C194.197 38.1 193.847 36.574 193.847 34.81V28.09C193.847 26.326 194.197 24.814 194.897 23.554C195.597 22.266 196.577 21.272 197.837 20.572C199.125 19.872 200.637 19.522 202.373 19.522C204.109 19.522 205.607 19.872 206.867 20.572C208.155 21.272 209.149 22.266 209.849 23.554C210.549 24.814 210.899 26.312 210.899 28.048V34.81C210.899 36.574 210.549 38.1 209.849 39.388C209.149 40.676 208.155 41.67 206.867 42.37C205.607 43.042 204.109 43.378 202.373 43.378ZM202.373 40.942C204.193 40.942 205.607 40.41 206.615 39.346C207.623 38.282 208.127 36.77 208.127 34.81V28.09C208.127 26.13 207.623 24.618 206.615 23.554C205.607 22.49 204.193 21.958 202.373 21.958C200.581 21.958 199.167 22.49 198.131 23.554C197.123 24.618 196.619 26.13 196.619 28.09V34.81C196.619 36.77 197.123 38.282 198.131 39.346C199.139 40.41 200.553 40.942 202.373 40.942Z" fill="black"/>
</svg>
